<svg id="Layer_3" data-name="Layer 3" xmlns="http://www.w3.org/2000/svg" viewBox="0 0 21.75 23.5"><defs><style>.cls-1{fill:#f2eee8;}</style></defs><title>bus</title><path class="cls-1" d="M1163.11,1145.2h-19.75a1,1,0,0,1-1-1v-12.58a7,7,0,0,1,7-7h7.75a7,7,0,0,1,7,7v12.58a1,1,0,0,1-1,1Zm-18.75-2h17.75v-11.58a5,5,0,0,0-5-5h-7.75a5,5,0,0,0-5,5v11.58Z" transform="translate(-1142.36 -1124.61)"/><path class="cls-1" d="M1147.4,1148.11c-1.88,0-3-.61-3-1.63v-1.37a1,1,0,0,1,2,0v.89a4.75,4.75,0,0,0,2,0v-.89a1,1,0,0,1,2,0v1.37c0,1-1.12,1.63-3,1.63Z" transform="translate(-1142.36 -1124.61)"/><path class="cls-1" d="M1159.07,1148.11c-1.88,0-3-.61-3-1.63v-1.37a1,1,0,0,1,2,0v.89a4.75,4.75,0,0,0,2,0v-.89a1,1,0,0,1,2,0v1.37c0,1-1.12,1.63-3,1.63Z" transform="translate(-1142.36 -1124.61)"/><path class="cls-1" d="M1158.07,1129.53h-9.67a1,1,0,0,1,0-2h9.67a1,1,0,0,1,0,2Z" transform="translate(-1142.36 -1124.61)"/><path class="cls-1" d="M1148.48,1138.2a1.5,1.5,0,1,0,1.5,1.5,1.5,1.5,0,0,0-1.5-1.5Z" transform="translate(-1142.36 -1124.61)"/><path class="cls-1" d="M1158,1138.2a1.5,1.5,0,1,0,1.5,1.5,1.5,1.5,0,0,0-1.5-1.5Z" transform="translate(-1142.36 -1124.61)"/><path class="cls-1" d="M1160.11,1137.49h-13.75a1.5,1.5,0,0,1-1.5-1.5v-4.37a1.5,1.5,0,0,1,1.5-1.5h13.75a1.5,1.5,0,0,1,1.5,1.5V1136a1.5,1.5,0,0,1-1.5,1.5Zm-13.75-6.37a.5.5,0,0,0-.5.5V1136a.5.5,0,0,0,.5.5h13.75a.5.5,0,0,0,.5-.5v-4.37a.5.5,0,0,0-.5-.5Z" transform="translate(-1142.36 -1124.61)"/></svg>