	<svg xmlns="http://www.w3.org/2000/svg" viewBox="0 0 24.96 16.39" style="fill:#fff">
					<path d="M907.83,1139.93a1,1,0,0,1-.4-.08l-11.2-4.88a1,1,0,0,1,0-1.83l11.2-4.88a1,1,0,0,1,.8,0l11.2,4.88a1,1,0,0,1,0,1.83l-11.2,4.88a1,1,0,0,1-.4.08Zm-8.7-5.88,8.7,3.79,8.7-3.79-8.7-3.79-8.7,3.79Z"
					    transform="translate(-895.62 -1128.17)" />
					<path d="M907.83,1144.56a15.66,15.66,0,0,1-8.77-2.73,1,1,0,0,1-.44-.83v-5.33a1,1,0,1,1,2,0v4.79a13.45,13.45,0,0,0,14.42,0v-4.79a1,1,0,0,1,2,0V1141a1,1,0,0,1-.44.83,15.66,15.66,0,0,1-8.77,2.73Z"
					    transform="translate(-895.62 -1128.17)" />
					<path class="cls-1" d="M919.58,1141.84a.5.5,0,0,1-.5-.5V1134a.5.5,0,0,1,1,0v7.33a.5.5,0,0,1-.5.5Z" transform="translate(-895.62 -1128.17)"
					/>
					<path d="M919.58,1142.34a1,1,0,0,1-1-1v-3.5a1,1,0,1,1,2,0v3.5a1,1,0,0,1-1,1Z" transform="translate(-895.62 -1128.17)"
					/>
				</svg>