<svg xmlns="http://www.w3.org/2000/svg" viewBox="0 0 18.28 22.62" style="fill:#fff">
					<path d="M976.15,1264.37a1,1,0,0,1-.43-.1,13.59,13.59,0,0,0-2.27-.84l.53-1.93a15.81,15.81,0,0,1,1.68.56,9.41,9.41,0,0,0,.68-3.54c0-4.51-3.11-8.18-6.93-8.18s-6.93,3.67-6.93,8.18a9.36,9.36,0,0,0,.68,3.54,16.12,16.12,0,0,1,1.68-.56l.53,1.93a13.59,13.59,0,0,0-2.27.84,1,1,0,0,1-1.31-.43,11.28,11.28,0,0,1-1.31-5.31c0-5.61,4-10.18,8.93-10.18s8.93,4.57,8.93,10.18a11.26,11.26,0,0,1-1.31,5.31,1,1,0,0,1-.88.53Z"
					    transform="translate(-960.28 -1248.35)" />
					<path d="M969.42,1265.53a4.13,4.13,0,0,1-.5,0c-2.64-.29-4.64-2.78-5.47-6.83a8.88,8.88,0,0,1-.15-1.24.5.5,0,0,1,.5-.53h2.74l.45-3.22a.5.5,0,0,1,1,0l.45,3.22h.7l.15-1.51a.5.5,0,0,1,.5-.45h0a.5.5,0,0,1,.5.45l.15,1.51H975a.5.5,0,0,1,.5.53,8.94,8.94,0,0,1-.15,1.24,10.83,10.83,0,0,1-2.29,5.1h0l-.24.25-.45-.26.36.35c-.17.16-.28.25-.39.34l-.4-.32.3.4a4.34,4.34,0,0,1-.36.25l-.08.06-.36.2-.12.06-.35.14-.1,0-.27.08-.26-.45.14.48-.1,0-.32.06-.17,0-.4,0Zm.39-1,.21.47-.07-.5.24,0,.24.45-.13-.48.27-.08.37-.15.36-.2.36-.25.35-.29.11-.1.23-.24h0a10,10,0,0,0,2.05-4.63q.05-.27.09-.57H970a.52.52,0,0,1-.2,0,.51.51,0,0,1-.2,0H968a.5.5,0,0,1-.49-.43v0a.5.5,0,0,1-.5.43h-2.63c0,.2.05.39.09.57.74,3.59,2.41,5.79,4.6,6l.39,0,.39,0Z"
					    transform="translate(-960.28 -1248.35)" />
					 <path d="M962.28,1271h-2a7,7,0,0,1,7.19-6.75v2a5,5,0,0,0-5.19,4.75Z" transform="translate(-960.28 -1248.35)"
					/>
					 <path d="M978.55,1271h-2a5,5,0,0,0-5.19-4.75v-2a7,7,0,0,1,7.19,6.75Z" transform="translate(-960.28 -1248.35)"
					/>
					 <path d="M967.31,1258.65a.59.59,0,1,0,.59.59.59.59,0,0,0-.59-.59Z" transform="translate(-960.28 -1248.35)"
					/>
					 <path d="M971.53,1258.65a.59.59,0,1,0,.59.59.59.59,0,0,0-.59-.59Z" transform="translate(-960.28 -1248.35)"
					/>
				</svg>