<svg id="Layer_3" data-name="Layer 3" xmlns="http://www.w3.org/2000/svg" viewBox="0 0 26.03 19.56"><defs><style>.cls-1{fill:#f2eee8;}</style></defs><title>house</title><path class="cls-1" d="M121.18,713h-6.4a1,1,0,0,1-1-1v-6.3h-3.21V712a1,1,0,0,1-1,1h-6.4a1,1,0,0,1-1-1V701.58a1,1,0,0,1,2,0V711h4.4v-6.3a1,1,0,0,1,1-1h5.21a1,1,0,0,1,1,1V711h4.4v-9.39a1,1,0,0,1,2,0V712a1,1,0,0,1-1,1Z" transform="translate(-99.17 -693.41)"/><path class="cls-1" d="M124.19,704a1,1,0,0,1-.58-.19l-11.43-8.19-11.43,8.19a1,1,0,1,1-1.16-1.63l12-8.6a1,1,0,0,1,1.16,0l12,8.6a1,1,0,0,1-.58,1.81Z" transform="translate(-99.17 -693.41)"/></svg>