<svg id="Isolation_Mode" data-name="Isolation Mode" xmlns="http://www.w3.org/2000/svg" viewBox="0 0 270.23 78.77"><defs><style>.cls-1{fill:#d1d3d4;}.cls-2{fill:#e6e7e8;}.cls-3{fill:#1baf5d;}.cls-4{fill:#8dc63f;}.cls-5{fill:#fff;}.cls-6{fill:#4c5b6a;}</style></defs><title>Vector Smart Object</title><path class="cls-1" d="M153.48,182.83h0a25.4,25.4,0,0,0,2.15-10.25c0-14.09-11.42-21.63-25.51-21.63s-25.5,7.55-25.5,21.63a25.4,25.4,0,0,0,2.15,10.25h0l.13.27c.27.6.56,1.18.87,1.75l22.32,44.87,22.38-44.82c.33-.59.62-1.19.9-1.81Z" transform="translate(-90.86 -150.95)"/><path class="cls-2" d="M130.07,229.71l22.38-44.82c.33-.59.62-1.19.9-1.81l.13-.26h0a25.4,25.4,0,0,0,2.15-10.25c0-14.09-11.42-21.63-25.5-21.63" transform="translate(-90.86 -150.95)"/><path class="cls-3" d="M130.07,172.87c0,11.21.69,20.3,11.9,20.3A20.3,20.3,0,1,0,130.63,156l1.75,4.14s1.93,2.33,5.22-.48l.31,2-7.81,11.19" transform="translate(-90.86 -150.95)"/><path class="cls-3" d="M158.22,167l3.7,2,7.41,20S148,194.42,142,193.17s-5.87-6.24-5.87-6.24,24.69,9.21,22.11-19.93" transform="translate(-90.86 -150.95)"/><path class="cls-4" d="M130.11,172.87c0,11.21-.69,20.3-11.9,20.3A20.3,20.3,0,1,1,129.56,156l-1.75,4.14s-1.93,2.33-5.22-.48l-.31,2,7.81,11.19" transform="translate(-90.86 -150.95)"/><path class="cls-4" d="M130.11,172.87a11.9,11.9,0,1,1-11.9-11.9,11.9,11.9,0,0,1,11.9,11.9" transform="translate(-90.86 -150.95)"/><path class="cls-5" d="M118.21,163.1a9.77,9.77,0,1,0,9.77,9.77,9.78,9.78,0,0,0-9.77-9.77m0,23.81a14,14,0,1,1,14-14,14.05,14.05,0,0,1-14,14" transform="translate(-90.86 -150.95)"/><path class="cls-3" d="M153.89,172.87A11.9,11.9,0,1,1,142,161a11.9,11.9,0,0,1,11.9,11.9" transform="translate(-90.86 -150.95)"/><path class="cls-5" d="M142,163.1a9.77,9.77,0,1,0,9.77,9.77A9.78,9.78,0,0,0,142,163.1m0,23.81a14,14,0,1,1,14-14,14.05,14.05,0,0,1-14,14" transform="translate(-90.86 -150.95)"/><path d="M124.08,172.87a5.87,5.87,0,1,1-5.87-5.87,5.87,5.87,0,0,1,5.87,5.87" transform="translate(-90.86 -150.95)"/><path d="M147.7,172.87a5.87,5.87,0,1,1-5.87-5.87,5.87,5.87,0,0,1,5.87,5.87" transform="translate(-90.86 -150.95)"/><path class="cls-4" d="M102,167l-3.7,2-7.41,20s21.36,5.42,27.35,4.17,5.87-6.24,5.87-6.24S99.38,196.14,102,167" transform="translate(-90.86 -150.95)"/><path class="cls-6" d="M194.86,198.66a12.69,12.69,0,0,0,3-.34,11.73,11.73,0,0,0,2.93-1.21v-17a13.21,13.21,0,0,0-2.41-.81,12,12,0,0,0-2.74-.3,6.84,6.84,0,0,0-3.27.76,7.27,7.27,0,0,0-2.4,2,9.36,9.36,0,0,0-1.49,3,12.68,12.68,0,0,0-.52,3.65,16.87,16.87,0,0,0,.42,3.78,11.1,11.1,0,0,0,1.28,3.25,7,7,0,0,0,2.14,2.28,5.34,5.34,0,0,0,3,.85m-.06-24.94a12.05,12.05,0,0,1,3.58.46,8.57,8.57,0,0,1,2.44,1.16V161h7v32.4q0,1.14.11,2.41t.35,2.59A26.64,26.64,0,0,0,209,201a17.29,17.29,0,0,0,.92,2.47h-6.59a3.72,3.72,0,0,1-.56-.57q-.28-.35-.56-.76a7.1,7.1,0,0,1-.49-.85,7,7,0,0,1-.35-.86,10.49,10.49,0,0,1-3.38,2.64,9.78,9.78,0,0,1-4.35.94,12.54,12.54,0,0,1-5.49-1.16,12,12,0,0,1-4.11-3.2,14.16,14.16,0,0,1-2.56-4.83,20,20,0,0,1-.88-6,16.51,16.51,0,0,1,1-5.64,14.7,14.7,0,0,1,2.82-4.8,13.93,13.93,0,0,1,4.47-3.35,13.63,13.63,0,0,1,6-1.26" transform="translate(-90.86 -150.95)"/><path class="cls-6" d="M221.66,174.18v20.06a5.35,5.35,0,0,0,.34,2,3.74,3.74,0,0,0,.91,1.37,3.5,3.5,0,0,0,1.34.77,5.5,5.5,0,0,0,1.67.24,18.11,18.11,0,0,0,4.15-.5,13.15,13.15,0,0,0,3.88-1.56V174.18H241v24.19a17.57,17.57,0,0,0,.16,2q.16,1.31.49,3.08H235c0-.11-.1-.31-.18-.61s-.16-.62-.24-1l-.23-1a6.84,6.84,0,0,1-.14-.68,14.13,14.13,0,0,1-2.07,1.51,16.63,16.63,0,0,1-2.41,1.19,15.67,15.67,0,0,1-2.54.77,11.71,11.71,0,0,1-2.44.27,12.84,12.84,0,0,1-4.87-.8,7.93,7.93,0,0,1-3.1-2.18,8.18,8.18,0,0,1-1.65-3.25,15.91,15.91,0,0,1-.49-4V174.18Z" transform="translate(-90.86 -150.95)"/><path class="cls-6" d="M247.25,161h7V176.4a16.08,16.08,0,0,1,1.34-1,9.84,9.84,0,0,1,1.68-.87,11.66,11.66,0,0,1,2.06-.61,12.15,12.15,0,0,1,2.43-.23,15.11,15.11,0,0,1,4.76.71,10,10,0,0,1,3.62,2.06,9,9,0,0,1,2.29,3.35,12,12,0,0,1,.8,4.51v19.12h-7v-19a5.39,5.39,0,0,0-1.44-4.16,5.68,5.68,0,0,0-4-1.32,13.08,13.08,0,0,0-1.59.09,12.27,12.27,0,0,0-1.56.3q-.79.2-1.61.49t-1.75.66v22.94h-7Z" transform="translate(-90.86 -150.95)"/><path class="cls-6" d="M292.54,199.31a5,5,0,0,0,3.09-1,7.54,7.54,0,0,0,2.14-2.58,13.47,13.47,0,0,0,1.25-3.61,20.56,20.56,0,0,0,.41-4.09,17.43,17.43,0,0,0-.37-3.65,8.78,8.78,0,0,0-1.21-3,6.27,6.27,0,0,0-2.17-2,6.42,6.42,0,0,0-3.23-.76,5.78,5.78,0,0,0-3,.79,6.55,6.55,0,0,0-2.18,2.16,10.61,10.61,0,0,0-1.31,3.25,17.66,17.66,0,0,0-.45,4.08,17.33,17.33,0,0,0,.39,3.63,11.78,11.78,0,0,0,1.25,3.36,7.56,7.56,0,0,0,2.2,2.48,5.37,5.37,0,0,0,3.21,1m.25,4.88a16.81,16.81,0,0,1-6.33-1.11,12.48,12.48,0,0,1-4.62-3.16A13.56,13.56,0,0,1,279,195a20.27,20.27,0,0,1-1-6.44,17.86,17.86,0,0,1,.9-5.69,13.31,13.31,0,0,1,2.71-4.72,12.89,12.89,0,0,1,4.57-3.23,16.14,16.14,0,0,1,6.47-1.19,15.65,15.65,0,0,1,6.4,1.19,12,12,0,0,1,4.42,3.27,13.41,13.41,0,0,1,2.56,4.88,21.17,21.17,0,0,1,.83,6,17.71,17.71,0,0,1-1,5.87,14.24,14.24,0,0,1-2.79,4.81,13.18,13.18,0,0,1-4.45,3.25,14.05,14.05,0,0,1-5.9,1.19" transform="translate(-90.86 -150.95)"/><path class="cls-6" d="M325.07,199.31a5,5,0,0,0,3.09-1,7.52,7.52,0,0,0,2.14-2.58,13.47,13.47,0,0,0,1.25-3.61,20.56,20.56,0,0,0,.41-4.09,17.5,17.5,0,0,0-.37-3.65,8.78,8.78,0,0,0-1.21-3,6.26,6.26,0,0,0-2.17-2,6.42,6.42,0,0,0-3.23-.76,5.78,5.78,0,0,0-3,.79,6.55,6.55,0,0,0-2.18,2.16,10.64,10.64,0,0,0-1.31,3.25,17.66,17.66,0,0,0-.45,4.08,17.33,17.33,0,0,0,.39,3.63,11.86,11.86,0,0,0,1.25,3.36,7.58,7.58,0,0,0,2.2,2.48,5.37,5.37,0,0,0,3.21,1m.24,4.88a16.81,16.81,0,0,1-6.33-1.11,12.48,12.48,0,0,1-4.62-3.16,13.57,13.57,0,0,1-2.83-4.93,20.27,20.27,0,0,1-1-6.44,17.89,17.89,0,0,1,.9-5.69,13.32,13.32,0,0,1,2.71-4.72,12.89,12.89,0,0,1,4.57-3.23,16.14,16.14,0,0,1,6.47-1.19,15.66,15.66,0,0,1,6.4,1.19,12,12,0,0,1,4.42,3.27,13.41,13.41,0,0,1,2.56,4.88,21.17,21.17,0,0,1,.83,6,17.67,17.67,0,0,1-1,5.87,14.23,14.23,0,0,1-2.79,4.81,13.16,13.16,0,0,1-4.45,3.25,14,14,0,0,1-5.9,1.19" transform="translate(-90.86 -150.95)"/><path class="cls-6" d="M341.08,175.64l4.31-1.46,1.84-7.56h5.21v7.56h7.19l-.65,5h-6.53v14.94a10.34,10.34,0,0,0,.18,2.09,4.12,4.12,0,0,0,.5,1.35,1.84,1.84,0,0,0,.81.73,2.7,2.7,0,0,0,1.11.22,10.87,10.87,0,0,0,2-.2,14.28,14.28,0,0,0,2.45-.72l1.63,3.44a15.83,15.83,0,0,1-3.84,2.22,10.12,10.12,0,0,1-3.67.73,10.79,10.79,0,0,1-4-.64,6,6,0,0,1-2.51-1.82,6.86,6.86,0,0,1-1.3-2.86,17.69,17.69,0,0,1-.37-3.77V179.22h-4.31Z" transform="translate(-90.86 -150.95)"/></svg>