<svg id="Layer_3" data-name="Layer 3" xmlns="http://www.w3.org/2000/svg" viewBox="0 0 23.68 23.55"><defs><style>.cls-1{fill:#f2eee8;}</style></defs><title>music</title><path class="cls-1" d="M348.05,1643.32a2.44,2.44,0,0,1-2.65-1.87c-.35-1.87,1.59-3.89,3.6-4.83a6.2,6.2,0,0,1,2.59-.64,2.44,2.44,0,0,1,2.65,1.87c.35,1.88-1.59,3.89-3.6,4.83a6.18,6.18,0,0,1-2.59.64Zm3.53-5.34a4.28,4.28,0,0,0-1.74.45c-1.64.78-2.58,2.11-2.48,2.66,0,.19.45.23.69.23a4.28,4.28,0,0,0,1.74-.45c1.65-.78,2.59-2.11,2.49-2.66,0-.18-.45-.23-.69-.23Z" transform="translate(-345.36 -1619.77)"/><polygon class="cls-1" points="8.92 18.25 6.92 18.25 6.92 4.58 8.92 4.58 8.92 18.25 8.92 18.25"/><path class="cls-1" d="M362.8,1639.74a2.44,2.44,0,0,1-2.65-1.87c-.35-1.87,1.59-3.89,3.6-4.83a6.2,6.2,0,0,1,2.59-.64,2.44,2.44,0,0,1,2.65,1.87c.35,1.87-1.6,3.89-3.6,4.83a6.18,6.18,0,0,1-2.59.64Zm3.54-5.34a4.27,4.27,0,0,0-1.74.45c-1.64.78-2.58,2.11-2.48,2.66,0,.19.45.23.69.23a4.28,4.28,0,0,0,1.74-.45c1.65-.78,2.59-2.11,2.49-2.66,0-.19-.45-.23-.69-.23Z" transform="translate(-345.36 -1619.77)"/><polygon class="cls-1" points="23.67 14.67 21.67 14.67 21.67 1 23.67 1 23.67 14.67 23.67 14.67"/><path class="cls-1" d="M353.28,1630a1,1,0,0,1-1-1v-4.63a1,1,0,0,1,.76-1l14.75-3.58a1,1,0,0,1,.86.19,1,1,0,0,1,.38.79v4.63a1,1,0,0,1-.76,1L353.52,1630l-.24,0Zm1-4.84v2.57l12.75-3.1V1622l-12.75,3.1Z" transform="translate(-345.36 -1619.77)"/><path class="cls-1" d="M348.05,1643.32a2.44,2.44,0,0,1-2.65-1.87c-.35-1.87,1.59-3.89,3.6-4.83a6.2,6.2,0,0,1,2.59-.64,2.44,2.44,0,0,1,2.65,1.87c.35,1.88-1.59,3.89-3.6,4.83a6.18,6.18,0,0,1-2.59.64Zm3.53-5.34a4.28,4.28,0,0,0-1.74.45c-1.64.78-2.58,2.11-2.48,2.66,0,.19.45.23.69.23a4.28,4.28,0,0,0,1.74-.45c1.65-.78,2.59-2.11,2.49-2.66,0-.18-.45-.23-.69-.23Z" transform="translate(-345.36 -1619.77)"/><polygon class="cls-1" points="8.92 18.25 6.92 18.25 6.92 4.58 8.92 4.58 8.92 18.25 8.92 18.25"/><path class="cls-1" d="M362.8,1639.74a2.44,2.44,0,0,1-2.65-1.87c-.35-1.87,1.59-3.89,3.6-4.83a6.2,6.2,0,0,1,2.59-.64,2.44,2.44,0,0,1,2.65,1.87c.35,1.87-1.6,3.89-3.6,4.83a6.18,6.18,0,0,1-2.59.64Zm3.54-5.34a4.27,4.27,0,0,0-1.74.45c-1.64.78-2.58,2.11-2.48,2.66,0,.19.45.23.69.23a4.28,4.28,0,0,0,1.74-.45c1.65-.78,2.59-2.11,2.49-2.66,0-.19-.45-.23-.69-.23Z" transform="translate(-345.36 -1619.77)"/><polygon class="cls-1" points="23.67 14.67 21.67 14.67 21.67 1 23.67 1 23.67 14.67 23.67 14.67"/><path class="cls-1" d="M353.28,1630a1,1,0,0,1-1-1v-4.63a1,1,0,0,1,.76-1l14.75-3.58a1,1,0,0,1,.86.19,1,1,0,0,1,.38.79v4.63a1,1,0,0,1-.76,1L353.52,1630l-.24,0Zm1-4.84v2.57l12.75-3.1V1622l-12.75,3.1Z" transform="translate(-345.36 -1619.77)"/></svg>